<?xml version="1.0" encoding="utf-8"?>
<!-- Generator: Adobe Illustrator 15.1.0, SVG Export Plug-In  -->
<!DOCTYPE svg PUBLIC "-//W3C//DTD SVG 1.1//EN" "http://www.w3.org/Graphics/SVG/1.1/DTD/svg11.dtd" [
	<!ENTITY ns_flows "http://ns.adobe.com/Flows/1.0/">
]>
<svg version="1.1"
	 xmlns="http://www.w3.org/2000/svg" xmlns:xlink="http://www.w3.org/1999/xlink" xmlns:a="http://ns.adobe.com/AdobeSVGViewerExtensions/3.0/"
	 x="0px" y="0px" width="144px" height="180px" viewBox="-10.251 -5.667 144 180"
	 overflow="visible" enable-background="new -10.251 -5.667 144 180" xml:space="preserve">
<defs>
</defs>
<path fill="#FAA41A" d="M115.383,66.825c-0.059-1.348-1.177-15.234-16.983-18.312c-11.675,0.057-71.345,0-73.97,0
	c-1.75,0-14.48,2.202-17.165,17.054c0,0,0.08,83.744,0.08,84.065s0.725,6.757,7.724,6.919c6.998,0.16,92.557,0.087,93.045,0.06
	c1.287-0.073,6.557-0.835,7.27-6.979C115.383,142.031,115.446,68.266,115.383,66.825z"/>
<path fill="#FAA41C" d="M110.948,25.141c0,5.29-4.767,9.578-10.646,9.578H22.236c-5.879,0-10.646-4.288-10.646-9.578V9.578
	C11.591,4.288,16.357,0,22.236,0h78.066c5.879,0,10.646,4.288,10.646,9.578V25.141z"/>
<path fill="#FAA41C" d="M92.115,27.919h11.673c0.726,3.717-0.339,13.328-10.494,14.326C96.287,38.528,97.284,31.546,92.115,27.919z"
	/>
<rect y="83.628" fill="#8E8E8E" width="7.723" height="26.668"/>
<rect x="114.953" y="83.628" fill="#8E8E8E" width="7.695" height="26.668"/>
<circle fill="#FFFFFF" cx="24.61" cy="137.355" r="7.753"/>
<circle fill="#FFFFFF" cx="98.007" cy="137.245" r="7.753"/>
<rect x="49.699" y="56.8" fill="#FFFFFF" width="23.008" height="6.274"/>
<rect x="16.857" y="156.576" fill="#8E8E8E" width="15.506" height="13.451"/>
<rect x="90.254" y="156.576" fill="#8E8E8E" width="15.506" height="13.451"/>
<path fill="#FFFFFF" d="M20.005,10.437c0.987-0.181,2.438-0.302,4.089-0.302c2.015,0,3.424,0.302,4.391,1.088
	c0.826,0.645,1.27,1.591,1.27,2.84c0,1.712-1.229,2.9-2.397,3.323v0.061c0.947,0.383,1.471,1.269,1.813,2.518
	c0.423,1.551,0.825,3.323,1.087,3.847h-3.142c-0.201-0.383-0.544-1.491-0.927-3.162c-0.383-1.712-0.967-2.155-2.235-2.175h-0.906
	v5.337h-3.042V10.437z M23.047,16.257h1.208c1.531,0,2.438-0.765,2.438-1.954c0-1.229-0.847-1.873-2.256-1.873
	c-0.745,0-1.169,0.04-1.39,0.101V16.257z"/>
<path fill="#FFFFFF" d="M33.553,12.672c-1.027,0-1.691-0.725-1.691-1.632c0-0.926,0.685-1.631,1.731-1.631
	c1.048,0,1.692,0.705,1.712,1.631c0,0.907-0.664,1.632-1.731,1.632H33.553z M32.042,23.811v-9.849h3.062v9.849H32.042z"/>
<path fill="#FFFFFF" d="M47.107,9.51V20.87c0,1.128,0.041,2.276,0.081,2.941h-2.719l-0.121-1.43h-0.061
	c-0.604,1.088-1.812,1.652-3.082,1.652c-2.336,0-4.209-1.994-4.209-5.056c-0.021-3.303,2.054-5.237,4.41-5.237
	c1.229,0,2.155,0.443,2.599,1.108h0.04V9.51H47.107z M44.045,18.151c0-0.182,0-0.383-0.04-0.564
	c-0.181-0.826-0.846-1.491-1.792-1.491c-1.41,0-2.115,1.249-2.115,2.8c0,1.651,0.826,2.699,2.095,2.699
	c0.886,0,1.611-0.604,1.792-1.471c0.041-0.201,0.061-0.443,0.061-0.685V18.151z"/>
<path fill="#FFFFFF" d="M51.918,19.843c0.101,1.289,1.35,1.893,2.779,1.893c1.048,0,1.894-0.141,2.72-0.423l0.402,2.075
	c-1.007,0.423-2.235,0.625-3.564,0.625c-3.344,0-5.257-1.934-5.257-5.036c0-2.498,1.57-5.257,4.975-5.257
	c3.183,0,4.391,2.477,4.391,4.915c0,0.523-0.061,0.987-0.101,1.229L51.918,19.843z M55.524,17.748c0-0.725-0.322-1.994-1.712-1.994
	c-1.31,0-1.833,1.188-1.913,1.994H55.524z"/>
<path fill="#FFFFFF" d="M74.313,23.448c-0.545,0.262-1.834,0.584-3.465,0.584c-4.693,0-7.109-2.941-7.109-6.828
	c0-4.632,3.303-7.19,7.412-7.19c1.59,0,2.799,0.322,3.344,0.604l-0.645,2.417c-0.605-0.262-1.471-0.503-2.578-0.503
	c-2.418,0-4.311,1.47-4.311,4.512c0,2.719,1.611,4.431,4.33,4.431c0.947,0,1.953-0.181,2.578-0.443L74.313,23.448z"/>
<path fill="#FFFFFF" d="M84.245,21.434c0,0.926,0.041,1.833,0.162,2.376h-2.76l-0.182-0.987h-0.061
	c-0.645,0.785-1.652,1.208-2.82,1.208c-1.994,0-3.182-1.45-3.182-3.021c0-2.558,2.295-3.766,5.781-3.766v-0.121
	c0-0.523-0.283-1.269-1.793-1.269c-1.008,0-2.074,0.342-2.719,0.725l-0.564-1.954c0.684-0.383,2.033-0.886,3.826-0.886
	c3.283,0,4.311,1.934,4.311,4.25V21.434z M81.284,19.158c-1.611,0-2.859,0.383-2.859,1.551c0,0.786,0.523,1.168,1.207,1.168
	c0.746,0,1.391-0.503,1.592-1.128c0.041-0.161,0.061-0.342,0.061-0.524V19.158z"/>
<path fill="#FFFFFF" d="M86.7,17.204c0-1.45-0.02-2.397-0.08-3.243h2.619l0.119,1.833h0.082c0.502-1.45,1.691-2.055,2.658-2.055
	c0.281,0,0.422,0.02,0.645,0.061v2.88c-0.262-0.04-0.504-0.08-0.846-0.08c-1.129,0-1.895,0.584-2.096,1.551
	c-0.039,0.201-0.061,0.423-0.061,0.685v4.975h-3.061L86.7,17.204z"/>
<path fill="#FFFFFF" d="M96.552,19.843c0.1,1.289,1.35,1.893,2.779,1.893c1.047,0,1.893-0.141,2.719-0.423l0.402,2.075
	c-1.006,0.423-2.234,0.625-3.564,0.625c-3.344,0-5.256-1.934-5.256-5.036c0-2.498,1.57-5.257,4.975-5.257
	c3.182,0,4.391,2.477,4.391,4.915c0,0.523-0.061,0.987-0.102,1.229L96.552,19.843z M100.157,17.748c0-0.725-0.322-1.994-1.713-1.994
	c-1.309,0-1.832,1.188-1.912,1.994H100.157z"/>
<ellipse fill="#8E8E8E" cx="87.346" cy="97.889" rx="4.147" ry="4.052"/>
<rect x="18.728" y="71.682" fill="#FFFFFF" width="84.95" height="46.337"/>
<polyline fill="#8E8E8E" points="83.389,99.102 77.079,103.757 77.079,118.023 98.141,118.023 98.141,103.757 91.309,99.102 "/>
<polygon fill="#8E8E8E" points="80.964,85.354 78.081,88.365 94.738,88.365 94.738,85.354 "/>
<polyline fill="#8E8E8E" points="78.85,80.805 81.156,84.841 94.738,84.841 94.738,82.471 78.85,80.537 "/>
<path fill="#8E8E8E" d="M80.795,86.738c-0.643,1.121-1.013,2.42-1.013,3.805c0,4.229,3.429,7.658,7.659,7.658
	c4.229,0,7.658-3.429,7.658-7.658c0-1.385-0.37-2.684-1.013-3.805H80.795z"/>
<path fill="#FFFFFF" d="M83.727,118.023c-1.775-2.545-0.985-4.011-0.546-5.206c0.571-1.55,2.204-2.308,2.684-2.498
	c0.863-0.343,2.607-0.584,4.091,0.257c0.838,0.473,2.242,1.863,2.539,2.983c0.575,2.171-0.335,3.536-0.999,4.464h1.501
	c0.825-1.324,1.314-3.93,0.142-6.029c-1.253-2.242-3.709-3.264-5.489-3.264c-1.468,0-4.503,0.893-5.703,3.609
	c-1.18,2.666-0.203,4.84,0.282,5.684H83.727z"/>
<path fill="#FFFFFF" d="M86.917,116.405c-0.004,0.778-0.002,1.261-0.002,1.618h1.384v-1.604c0,0,0.783-0.321,0.816-0.948
	c0.618-0.354,3.548-2.016,3.548-2.016l-0.686-0.939l-3.299,1.538c0,0-0.985-1.014-2.11-0.018c-1.318-0.551-3.382-1.521-3.382-1.521
	l-0.412,1.146l3.391,1.777C86.165,115.439,86.109,115.943,86.917,116.405z"/>
</svg>
